# 3ds Max Wavefront OBJ Exporter v0.97b - (c)2007 guruware
# File Created: 11.12.2012 13:24:01

mtllib square.mtl

#
# object Box01
#

v  -119.965942 0.006042 155.869690
v  -119.965942 0.006042 -144.929504
v  -114.461578 0.006042 -144.929504
v  -114.461578 0.006042 155.869690
v  -119.965942 6.007133 155.869690
v  -114.461578 6.007133 155.869690
v  -114.461578 6.007133 -144.929504
v  -119.965942 6.007133 -144.929504
# 8 vertices

vn 0.000000 -1.000000 -0.000000
vn 0.000000 1.000000 -0.000000
vn 0.000000 0.000000 1.000000
vn 1.000000 0.000000 -0.000000
vn 0.000000 0.000000 -1.000000
vn -1.000000 0.000000 -0.000000
# 6 vertex normals

vt 0.544340 0.052634 0.000000
vt 0.010000 0.052634 0.000000
vt 0.010000 0.010000 0.000000
vt 0.544340 0.010000 0.000000
vt 0.010000 0.186293 0.000000
vt 0.010000 0.143660 0.000000
vt 0.544340 0.143660 0.000000
vt 0.544340 0.186293 0.000000
vt 0.611170 0.383941 0.000000
vt 0.568536 0.383941 0.000000
vt 0.568536 0.344149 0.000000
vt 0.611170 0.344149 0.000000
vt 0.544340 0.932061 0.000000
vt 0.010000 0.932061 0.000000
vt 0.010000 0.892270 0.000000
vt 0.544340 0.892270 0.000000
vt 0.611170 0.317111 0.000000
vt 0.568536 0.317111 0.000000
vt 0.568536 0.277319 0.000000
vt 0.611170 0.277319 0.000000
vt 0.544340 0.642369 0.000000
vt 0.010000 0.642369 0.000000
vt 0.010000 0.602577 0.000000
vt 0.544340 0.602577 0.000000
# 24 texture coords

g Box01
usemtl wire_006134006
s 2
f -8/-24/-6 -7/-23/-6 -6/-22/-6 -5/-21/-6 
s 4
f -4/-20/-5 -3/-19/-5 -2/-18/-5 -1/-17/-5 
s 8
f -8/-16/-4 -5/-15/-4 -3/-14/-4 -4/-13/-4 
s 16
f -5/-12/-3 -6/-11/-3 -2/-10/-3 -3/-9/-3 
s 32
f -6/-8/-2 -7/-7/-2 -1/-6/-2 -2/-5/-2 
s 64
f -7/-4/-1 -8/-3/-1 -4/-2/-1 -1/-1/-1 
# 6 polygons

#
# object Box02
#

v  -119.929550 0.017083 150.328262
v  180.869644 0.017083 150.328278
v  180.869644 0.017083 155.832626
v  -119.929550 0.017083 155.832611
v  -119.929550 6.018174 150.328262
v  -119.929550 6.018174 155.832611
v  180.869644 6.018174 155.832626
v  180.869644 6.018174 150.328278
# 8 vertices

vn 0.000000 -1.000000 -0.000000
vn 0.000000 1.000000 -0.000000
vn -1.000000 0.000000 -0.000000
vn -0.000000 0.000000 1.000000
vn 1.000000 0.000000 0.000000
vn 0.000000 0.000000 -1.000000
# 6 vertex normals

vt 0.544340 0.453613 0.000000
vt 0.010000 0.453613 0.000000
vt 0.010000 0.410979 0.000000
vt 0.544340 0.410979 0.000000
vt 0.010000 0.520443 0.000000
vt 0.010000 0.477809 0.000000
vt 0.544340 0.477809 0.000000
vt 0.544340 0.520443 0.000000
vt 0.611170 0.517600 0.000000
vt 0.568536 0.517600 0.000000
vt 0.568536 0.477809 0.000000
vt 0.611170 0.477809 0.000000
vt 0.544340 0.758246 0.000000
vt 0.010000 0.758246 0.000000
vt 0.010000 0.718455 0.000000
vt 0.544340 0.718455 0.000000
vt 0.611170 0.049791 0.000000
vt 0.568536 0.049791 0.000000
vt 0.568536 0.010000 0.000000
vt 0.611170 0.010000 0.000000
vt 0.544340 0.816184 0.000000
vt 0.010000 0.816184 0.000000
vt 0.010000 0.776393 0.000000
vt 0.544340 0.776393 0.000000
# 24 texture coords

g Box02
usemtl wire_006134006
s 2
f -8/-24/-6 -7/-23/-6 -6/-22/-6 -5/-21/-6 
s 4
f -4/-20/-5 -3/-19/-5 -2/-18/-5 -1/-17/-5 
s 8
f -8/-16/-4 -5/-15/-4 -3/-14/-4 -4/-13/-4 
s 16
f -5/-12/-3 -6/-11/-3 -2/-10/-3 -3/-9/-3 
s 32
f -6/-8/-2 -7/-7/-2 -1/-6/-2 -2/-5/-2 
s 64
f -7/-4/-1 -8/-3/-1 -4/-2/-1 -1/-1/-1 
# 6 polygons

#
# object Box03
#

v  -119.929550 0.017083 -144.720108
v  180.869644 0.017083 -144.720093
v  180.869644 0.017083 -139.215744
v  -119.929550 0.017083 -139.215759
v  -119.929550 6.018174 -144.720108
v  -119.929550 6.018174 -139.215759
v  180.869644 6.018174 -139.215744
v  180.869644 6.018174 -144.720093
# 8 vertices

vn 0.000000 -1.000000 -0.000000
vn 0.000000 1.000000 -0.000000
vn -1.000000 0.000000 -0.000000
vn -0.000000 0.000000 1.000000
vn 1.000000 0.000000 0.000000
vn 0.000000 0.000000 -1.000000
# 6 vertex normals

vt 0.544340 0.119463 0.000000
vt 0.010000 0.119463 0.000000
vt 0.010000 0.076830 0.000000
vt 0.544340 0.076830 0.000000
vt 0.010000 0.253123 0.000000
vt 0.010000 0.210490 0.000000
vt 0.544340 0.210490 0.000000
vt 0.544340 0.253123 0.000000
vt 0.611170 0.116621 0.000000
vt 0.568536 0.116621 0.000000
vt 0.568536 0.076830 0.000000
vt 0.611170 0.076830 0.000000
vt 0.544340 0.584430 0.000000
vt 0.010000 0.584430 0.000000
vt 0.010000 0.544639 0.000000
vt 0.544340 0.544639 0.000000
vt 0.611170 0.183451 0.000000
vt 0.568536 0.183451 0.000000
vt 0.568536 0.143660 0.000000
vt 0.611170 0.143660 0.000000
vt 0.544340 0.874123 0.000000
vt 0.010000 0.874123 0.000000
vt 0.010000 0.834332 0.000000
vt 0.544340 0.834332 0.000000
# 24 texture coords

g Box03
usemtl wire_006134006
s 2
f -8/-24/-6 -7/-23/-6 -6/-22/-6 -5/-21/-6 
s 4
f -4/-20/-5 -3/-19/-5 -2/-18/-5 -1/-17/-5 
s 8
f -8/-16/-4 -5/-15/-4 -3/-14/-4 -4/-13/-4 
s 16
f -5/-12/-3 -6/-11/-3 -2/-10/-3 -3/-9/-3 
s 32
f -6/-8/-2 -7/-7/-2 -1/-6/-2 -2/-5/-2 
s 64
f -7/-4/-1 -8/-3/-1 -4/-2/-1 -1/-1/-1 
# 6 polygons

#
# object Box04
#

v  175.504074 0.006042 155.869690
v  175.504074 0.006042 -144.929504
v  181.008438 0.006042 -144.929504
v  181.008438 0.006042 155.869690
v  175.504074 6.007133 155.869690
v  181.008438 6.007133 155.869690
v  181.008438 6.007133 -144.929504
v  175.504074 6.007133 -144.929504
# 8 vertices

vn 0.000000 -1.000000 -0.000000
vn 0.000000 1.000000 -0.000000
vn 0.000000 0.000000 1.000000
vn 1.000000 0.000000 -0.000000
vn 0.000000 0.000000 -1.000000
vn -1.000000 0.000000 -0.000000
# 6 vertex normals

vt 0.544340 0.386783 0.000000
vt 0.010000 0.386783 0.000000
vt 0.010000 0.344149 0.000000
vt 0.544340 0.344149 0.000000
vt 0.010000 0.319953 0.000000
vt 0.010000 0.277319 0.000000
vt 0.544340 0.277319 0.000000
vt 0.544340 0.319953 0.000000
vt 0.611170 0.250281 0.000000
vt 0.568536 0.250281 0.000000
vt 0.568536 0.210490 0.000000
vt 0.611170 0.210490 0.000000
vt 0.544340 0.990000 0.000000
vt 0.010000 0.990000 0.000000
vt 0.010000 0.950209 0.000000
vt 0.544340 0.950209 0.000000
vt 0.611170 0.450770 0.000000
vt 0.568536 0.450770 0.000000
vt 0.568536 0.410979 0.000000
vt 0.611170 0.410979 0.000000
vt 0.544340 0.700307 0.000000
vt 0.010000 0.700307 0.000000
vt 0.010000 0.660516 0.000000
vt 0.544340 0.660516 0.000000
# 24 texture coords

g Box04
usemtl Material__104
s 2
f -8/-24/-6 -7/-23/-6 -6/-22/-6 -5/-21/-6 
s 4
f -4/-20/-5 -3/-19/-5 -2/-18/-5 -1/-17/-5 
s 8
f -8/-16/-4 -5/-15/-4 -3/-14/-4 -4/-13/-4 
s 16
f -5/-12/-3 -6/-11/-3 -2/-10/-3 -3/-9/-3 
s 32
f -6/-8/-2 -7/-7/-2 -1/-6/-2 -2/-5/-2 
s 64
f -7/-4/-1 -8/-3/-1 -4/-2/-1 -1/-1/-1 
# 6 polygons

